<svg width="408" height="222" viewBox="0 0 408 222" fill="none" xmlns="http://www.w3.org/2000/svg">
<g clip-path="url(#clip0_37_111)">
<path d="M203.936 125.746C220.623 125.746 236.376 119.164 248.137 107.324C260.026 95.3993 266.48 79.6704 266.48 62.9157C266.48 28.2522 238.329 1.52588e-05 203.851 1.52588e-05C187.164 1.52588e-05 171.412 6.58223 159.65 18.4217C147.761 30.3466 141.307 46.0755 141.307 62.8302C141.307 97.4937 169.458 125.66 203.936 125.66V125.746Z" fill="#E94325"/>
<path d="M283.252 213.964C283.252 211.699 284.695 158.657 251.407 128.011C248.434 125.233 243.934 125.147 240.749 127.498C240.325 127.797 203.596 155.579 169.416 127.498C166.359 124.934 161.858 125.019 158.759 127.712C157.442 128.951 125.385 157.417 124.578 213.58C124.578 215.845 125.385 217.982 126.913 219.564C128.442 221.102 130.607 222.043 132.858 222.043H274.93C279.43 222.043 282.997 218.452 283.209 213.922V214.007L283.252 213.964Z" fill="#E94325"/>
<path d="M349.745 126.515C361.973 126.515 373.565 121.685 382.227 113.009C390.931 104.247 395.686 92.7066 395.686 80.397C395.686 54.9658 375.008 34.1933 349.702 34.1933C337.474 34.1933 325.882 39.0231 317.22 47.6997C308.516 56.4617 303.76 68.002 303.76 80.3116C303.76 105.743 324.438 126.43 349.745 126.43V126.515Z" fill="#E94325"/>
<path d="M408 191.269C408 189.602 409.061 150.664 384.647 128.182C382.481 126.131 379.17 126.088 376.834 127.798C376.537 128.011 349.575 148.399 324.438 127.798C322.188 125.917 318.876 126.002 316.626 127.969C315.649 128.866 292.126 149.767 291.532 191.012C291.532 192.679 292.126 194.261 293.273 195.372C294.419 196.483 295.99 197.167 297.646 197.167H401.971C405.283 197.167 407.915 194.517 408.042 191.183V191.269H408Z" fill="#E94325"/>
<path d="M58.2552 126.515C70.4837 126.515 82.0754 121.685 90.7372 113.009C99.4416 104.247 104.197 92.7066 104.197 80.397C104.197 54.9658 83.519 34.1933 58.2127 34.1933C45.9842 34.1933 34.3926 39.0231 25.7307 47.6997C17.0263 56.4617 12.2708 68.002 12.2708 80.3116C12.2708 105.743 32.9489 126.43 58.2552 126.43V126.515Z" fill="#E94325"/>
<path d="M116.468 191.269C116.468 189.602 117.53 150.664 93.1152 128.182C90.9497 126.131 87.6378 126.088 85.3025 127.798C85.0053 128.011 58.0431 148.399 32.9066 127.798C30.6563 125.917 27.3444 126.002 25.094 127.969C24.1174 128.866 0.594443 149.767 0 191.012C0 192.679 0.594443 194.261 1.74087 195.372C2.88729 196.483 4.45832 197.167 6.11427 197.167H110.439C113.751 197.167 116.383 194.517 116.511 191.183V191.269H116.468Z" fill="#E94325"/>
</g>
<defs>
<clipPath id="clip0_37_111">
<rect width="408" height="222" fill="white"/>
</clipPath>
</defs>
</svg>
